%TF.GenerationSoftware,KiCad,Pcbnew,10.0.3*%
%TF.CreationDate,2026-06-18T00:40:33-07:00*%
%TF.ProjectId,trashboy,74726173-6862-46f7-992e-6b696361645f,1.0*%
%TF.SameCoordinates,Original*%
%TF.FileFunction,Soldermask,Top*%
%TF.FilePolarity,Negative*%
%FSLAX46Y46*%
G04 Gerber Fmt 4.6, Leading zero omitted, Abs format (unit mm)*
G04 Created by KiCad (PCBNEW 10.0.3) date 2026-06-18 00:40:33*
%MOMM*%
%LPD*%
G01*
G04 APERTURE LIST*
G04 Aperture macros list*
%AMRoundRect*
0 Rectangle with rounded corners*
0 $1 Rounding radius*
0 $2 $3 $4 $5 $6 $7 $8 $9 X,Y pos of 4 corners*
0 Add a 4 corners polygon primitive as box body*
4,1,4,$2,$3,$4,$5,$6,$7,$8,$9,$2,$3,0*
0 Add four circle primitives for the rounded corners*
1,1,$1+$1,$2,$3*
1,1,$1+$1,$4,$5*
1,1,$1+$1,$6,$7*
1,1,$1+$1,$8,$9*
0 Add four rect primitives between the rounded corners*
20,1,$1+$1,$2,$3,$4,$5,0*
20,1,$1+$1,$4,$5,$6,$7,0*
20,1,$1+$1,$6,$7,$8,$9,0*
20,1,$1+$1,$8,$9,$2,$3,0*%
G04 Aperture macros list end*
%ADD10C,1.879600*%
%ADD11RoundRect,0.050800X-0.889000X-0.889000X0.889000X-0.889000X0.889000X0.889000X-0.889000X0.889000X0*%
%ADD12C,2.286000*%
%ADD13RoundRect,0.250000X-0.337500X-0.475000X0.337500X-0.475000X0.337500X0.475000X-0.337500X0.475000X0*%
%ADD14C,2.000000*%
%ADD15RoundRect,0.250000X0.337500X0.475000X-0.337500X0.475000X-0.337500X-0.475000X0.337500X-0.475000X0*%
%ADD16RoundRect,0.250000X-0.350000X-0.450000X0.350000X-0.450000X0.350000X0.450000X-0.350000X0.450000X0*%
%ADD17R,1.600000X1.600000*%
%ADD18C,1.600000*%
%ADD19R,1.700000X1.700000*%
%ADD20C,1.700000*%
%ADD21RoundRect,0.250000X0.550000X-0.550000X0.550000X0.550000X-0.550000X0.550000X-0.550000X-0.550000X0*%
G04 APERTURE END LIST*
D10*
%TO.C,JP1*%
X8941500Y25877000D03*
X8941500Y23337000D03*
X8941500Y20797000D03*
X8941500Y18257000D03*
D11*
X8941500Y15717000D03*
%TD*%
D12*
%TO.C,X1*%
X-8457500Y18970000D03*
X-8457500Y22470000D03*
%TD*%
D13*
%TO.C,C1*%
X2242500Y22970000D03*
X4317500Y22970000D03*
%TD*%
%TO.C,C2*%
X2242500Y19960000D03*
X4317500Y19960000D03*
%TD*%
D14*
%TO.C,BTN_R_DOWN1*%
X13750000Y-20000000D03*
X18250000Y-20000000D03*
X13750000Y-28000000D03*
X18250000Y-28000000D03*
%TD*%
D15*
%TO.C,C3*%
X-4000000Y-4500000D03*
X-6075000Y-4500000D03*
%TD*%
D14*
%TO.C,CR_R_LEFT1*%
X12750000Y18000000D03*
X17250000Y18000000D03*
X12750000Y10000000D03*
X17250000Y10000000D03*
%TD*%
D16*
%TO.C,R3*%
X-2391900Y16794400D03*
X-391900Y16794400D03*
%TD*%
D14*
%TO.C,CR_R_DOWN1*%
X20750000Y10000000D03*
X25250000Y10000000D03*
X20750000Y2000000D03*
X25250000Y2000000D03*
%TD*%
%TO.C,BTN_L_UP1*%
X-25250000Y-6000000D03*
X-20750000Y-6000000D03*
X-25250000Y-14000000D03*
X-20750000Y-14000000D03*
%TD*%
D16*
%TO.C,R2*%
X-2500000Y20050000D03*
X-500000Y20050000D03*
%TD*%
D14*
%TO.C,BTN_R_UP1*%
X20750000Y-6000000D03*
X25250000Y-6000000D03*
X20750000Y-14000000D03*
X25250000Y-14000000D03*
%TD*%
%TO.C,BTN_META_DOWN1*%
X-2250000Y-11500000D03*
X2250000Y-11500000D03*
X-2250000Y-19500000D03*
X2250000Y-19500000D03*
%TD*%
%TO.C,CR_L_RIGHT1*%
X-17250000Y18000000D03*
X-12750000Y18000000D03*
X-17250000Y10000000D03*
X-12750000Y10000000D03*
%TD*%
%TO.C,CR_R_UP1*%
X20750000Y26000000D03*
X25250000Y26000000D03*
X20750000Y18000000D03*
X25250000Y18000000D03*
%TD*%
%TO.C,BTN_L_DOWN1*%
X-18250000Y-20000000D03*
X-13750000Y-20000000D03*
X-18250000Y-28000000D03*
X-13750000Y-28000000D03*
%TD*%
D16*
%TO.C,R1*%
X-2500000Y23000000D03*
X-500000Y23000000D03*
%TD*%
D14*
%TO.C,CR_L_DOWN1*%
X-25250000Y10000000D03*
X-20750000Y10000000D03*
X-25250000Y2000000D03*
X-20750000Y2000000D03*
%TD*%
%TO.C,CR_L_LEFT1*%
X-33250000Y18000000D03*
X-28750000Y18000000D03*
X-33250000Y10000000D03*
X-28750000Y10000000D03*
%TD*%
%TO.C,CR_L_UP1*%
X-25250000Y26000000D03*
X-20750000Y26000000D03*
X-25250000Y18000000D03*
X-20750000Y18000000D03*
%TD*%
%TO.C,BTN_META_UP1*%
X-2250000Y12500000D03*
X2250000Y12500000D03*
X-2250000Y4500000D03*
X2250000Y4500000D03*
%TD*%
%TO.C,CR_R_RIGHT1*%
X28750000Y18000000D03*
X33250000Y18000000D03*
X28750000Y10000000D03*
X33250000Y10000000D03*
%TD*%
D17*
%TO.C,RN2*%
X33000000Y-20000000D03*
D18*
X33000000Y-17460000D03*
X33000000Y-14920000D03*
X33000000Y-12380000D03*
X33000000Y-9840000D03*
X33000000Y-7300000D03*
X33000000Y-4760000D03*
X33000000Y-2220000D03*
X33000000Y320000D03*
%TD*%
D19*
%TO.C,J_BTN_R_BACK1*%
X8500000Y8500000D03*
D20*
X8500000Y5960000D03*
%TD*%
D21*
%TO.C,U1*%
X16510000Y-8120000D03*
D18*
X13970000Y-8120000D03*
X11430000Y-8120000D03*
X8890000Y-8120000D03*
X6350000Y-8120000D03*
X3810000Y-8120000D03*
X1270000Y-8120000D03*
X-1270000Y-8120000D03*
X-3810000Y-8120000D03*
X-6350000Y-8120000D03*
X-8890000Y-8120000D03*
X-11430000Y-8120000D03*
X-13970000Y-8120000D03*
X-16510000Y-8120000D03*
X-16510000Y-500000D03*
X-13970000Y-500000D03*
X-11430000Y-500000D03*
X-8890000Y-500000D03*
X-6350000Y-500000D03*
X-3810000Y-500000D03*
X-1270000Y-500000D03*
X1270000Y-500000D03*
X3810000Y-500000D03*
X6350000Y-500000D03*
X8890000Y-500000D03*
X11430000Y-500000D03*
X13970000Y-500000D03*
X16510000Y-500000D03*
%TD*%
D19*
%TO.C,J_BTN_L_BACK1*%
X-8500000Y8500000D03*
D20*
X-8500000Y5960000D03*
%TD*%
D17*
%TO.C,RN1*%
X-33000000Y-20000000D03*
D18*
X-33000000Y-17460000D03*
X-33000000Y-14920000D03*
X-33000000Y-12380000D03*
X-33000000Y-9840000D03*
X-33000000Y-7300000D03*
X-33000000Y-4760000D03*
X-33000000Y-2220000D03*
X-33000000Y320000D03*
%TD*%
D19*
%TO.C,J2*%
X7620000Y31000000D03*
D20*
X5080000Y31000000D03*
X2540000Y31000000D03*
X0Y31000000D03*
X-2540000Y31000000D03*
X-5080000Y31000000D03*
X-7620000Y31000000D03*
%TD*%
D19*
%TO.C,J1*%
X29000000Y24775000D03*
D20*
X29000000Y22235000D03*
%TD*%
M02*
