M48
; DRILL file KiCad 10.0.3 date 2026-06-18T00:41:10
; FORMAT={-:-/ absolute / metric / decimal}
; #@! TF.CreationDate,2026-06-18T00:41:10-07:00
; #@! TF.GenerationSoftware,Kicad,Pcbnew,10.0.3
; #@! TF.FileFunction,Plated,1,2,PTH
FMAT,2
METRIC
; #@! TA.AperFunction,Plated,PTH,ViaDrill
T1C0.300
; #@! TA.AperFunction,Plated,PTH,ComponentDrill
T2C0.800
; #@! TA.AperFunction,Plated,PTH,ComponentDrill
T3C1.000
%
G90
G05
T1
X-22.096Y-2.22
X6.35Y3.031
X7.839Y-13.987
X14.834Y-6.837
T2
X-33.0Y0.32
X-33.0Y-2.22
X-33.0Y-4.76
X-33.0Y-7.3
X-33.0Y-9.84
X-33.0Y-12.38
X-33.0Y-14.92
X-33.0Y-17.46
X-33.0Y-20.0
X-16.51Y-0.5
X-16.51Y-8.12
X-13.97Y-0.5
X-13.97Y-8.12
X-11.43Y-0.5
X-11.43Y-8.12
X-8.89Y-0.5
X-8.89Y-8.12
X-6.35Y-0.5
X-6.35Y-8.12
X-3.81Y-0.5
X-3.81Y-8.12
X-1.27Y-0.5
X-1.27Y-8.12
X1.27Y-0.5
X1.27Y-8.12
X3.81Y-0.5
X3.81Y-8.12
X6.35Y-0.5
X6.35Y-8.12
X8.89Y-0.5
X8.89Y-8.12
X11.43Y-0.5
X11.43Y-8.12
X13.97Y-0.5
X13.97Y-8.12
X16.51Y-0.5
X16.51Y-8.12
X33.0Y0.32
X33.0Y-2.22
X33.0Y-4.76
X33.0Y-7.3
X33.0Y-9.84
X33.0Y-12.38
X33.0Y-14.92
X33.0Y-17.46
X33.0Y-20.0
T3
X-33.25Y18.0
X-33.25Y10.0
X-28.75Y18.0
X-28.75Y10.0
X-25.25Y26.0
X-25.25Y18.0
X-25.25Y10.0
X-25.25Y2.0
X-25.25Y-6.0
X-25.25Y-14.0
X-20.75Y26.0
X-20.75Y18.0
X-20.75Y10.0
X-20.75Y2.0
X-20.75Y-6.0
X-20.75Y-14.0
X-18.25Y-20.0
X-18.25Y-28.0
X-17.25Y18.0
X-17.25Y10.0
X-13.75Y-20.0
X-13.75Y-28.0
X-12.75Y18.0
X-12.75Y10.0
X-8.5Y8.5
X-8.5Y5.96
X-8.457Y22.47
X-8.457Y18.97
X-7.62Y31.0
X-5.08Y31.0
X-2.54Y31.0
X-2.25Y12.5
X-2.25Y4.5
X-2.25Y-11.5
X-2.25Y-19.5
X0.0Y31.0
X2.25Y12.5
X2.25Y4.5
X2.25Y-11.5
X2.25Y-19.5
X2.54Y31.0
X5.08Y31.0
X7.62Y31.0
X8.5Y8.5
X8.5Y5.96
X8.941Y25.877
X8.941Y23.337
X8.941Y20.797
X8.941Y18.257
X8.941Y15.717
X12.75Y18.0
X12.75Y10.0
X13.75Y-20.0
X13.75Y-28.0
X17.25Y18.0
X17.25Y10.0
X18.25Y-20.0
X18.25Y-28.0
X20.75Y26.0
X20.75Y18.0
X20.75Y10.0
X20.75Y2.0
X20.75Y-6.0
X20.75Y-14.0
X25.25Y26.0
X25.25Y18.0
X25.25Y10.0
X25.25Y2.0
X25.25Y-6.0
X25.25Y-14.0
X28.75Y18.0
X28.75Y10.0
X29.0Y24.775
X29.0Y22.235
X33.25Y18.0
X33.25Y10.0
M30
